<?xml version="1.0" standalone="no"?>
<!DOCTYPE svg PUBLIC "-//W3C//DTD SVG 20010904//EN"
 "http://www.w3.org/TR/2001/REC-SVG-20010904/DTD/svg10.dtd">
<svg version="1.0" xmlns="http://www.w3.org/2000/svg"
 width="700.000000pt" height="700.000000pt" viewBox="0 0 700.000000 700.000000"
 preserveAspectRatio="xMidYMid meet">
<metadata>
Created by potrace 1.14, written by Peter Selinger 2001-2017
</metadata>
<g transform="translate(0.000000,700.000000) scale(0.100000,-0.100000)"
fill="#000000" stroke="none">
<path d="M3278 6996 c-1 -2 -42 -6 -89 -10 -47 -4 -95 -8 -105 -10 -10 -2 -41
-7 -69 -10 -428 -56 -875 -210 -1270 -439 -103 -60 -265 -165 -315 -204 -8 -6
-51 -40 -95 -74 -353 -275 -673 -651 -897 -1054 -49 -87 -148 -289 -148 -301
0 -2 -9 -23 -20 -47 -57 -123 -157 -435 -186 -582 -2 -11 -10 -54 -19 -95 -22
-115 -30 -160 -41 -255 -26 -230 -26 -667 1 -826 2 -13 6 -46 9 -74 9 -78 22
-152 51 -285 21 -96 91 -339 114 -395 5 -11 25 -65 46 -120 63 -166 249 -531
312 -610 4 -6 34 -49 65 -95 170 -255 433 -535 708 -755 92 -74 370 -265 386
-265 4 0 15 -6 23 -14 26 -22 298 -158 411 -205 267 -111 589 -200 859 -237
25 -3 57 -8 71 -10 163 -25 682 -25 842 1 13 2 46 7 73 10 72 10 86 12 120 19
17 3 44 8 60 11 343 65 740 212 1039 384 49 28 90 51 92 51 10 0 260 174 346
240 156 122 330 285 458 429 36 41 70 79 76 85 65 68 263 353 352 508 47 80
182 351 182 364 0 3 8 24 19 47 53 118 147 417 177 562 17 81 54 301 59 350 4
33 9 71 11 85 9 46 11 524 4 605 -15 153 -21 210 -25 225 -2 8 -7 35 -10 60
-17 129 -80 384 -136 552 -152 453 -407 888 -725 1237 -75 82 -255 258 -314
306 -25 21 -64 54 -88 74 -210 175 -557 381 -847 503 -234 98 -575 195 -785
223 -19 3 -46 7 -60 10 -13 2 -52 7 -86 11 -33 3 -74 8 -90 10 -32 5 -540 14
-546 10z m162 -1860 c25 -2 83 -7 130 -11 151 -11 286 -26 375 -40 17 -3 53
-7 80 -10 92 -11 383 -64 500 -92 11 -3 38 -9 60 -13 22 -5 49 -11 60 -14 319
-71 783 -242 1080 -397 217 -113 262 -149 307 -246 96 -204 -47 -445 -274
-459 -72 -4 -147 18 -239 72 -86 51 -325 165 -434 207 -227 88 -556 186 -747
222 -13 3 -57 12 -98 20 -104 21 -112 23 -167 31 -26 3 -57 8 -67 10 -19 3
-132 19 -209 29 -20 3 -52 7 -70 9 -18 3 -70 8 -117 11 -47 4 -101 9 -120 10
-179 17 -661 24 -845 11 -165 -11 -230 -16 -260 -21 -16 -2 -63 -7 -103 -10
-40 -3 -81 -8 -92 -10 -10 -2 -69 -11 -130 -20 -61 -9 -121 -19 -133 -21 -12
-3 -38 -8 -57 -11 -19 -3 -114 -26 -210 -51 -217 -58 -313 -62 -395 -20 -217
112 -244 407 -51 555 68 52 320 122 641 178 44 7 100 17 125 20 25 3 56 8 70
10 64 10 163 22 255 31 39 4 84 8 100 10 17 2 86 6 155 9 69 4 126 8 128 10 5
4 695 -4 752 -9z m-255 -1200 c158 -8 253 -16 375 -32 19 -2 55 -6 80 -9 51
-6 59 -8 185 -30 132 -22 140 -24 265 -52 413 -91 818 -239 1175 -431 247
-132 306 -196 306 -334 1 -147 -120 -270 -266 -271 -63 -1 -116 19 -245 94
-94 54 -281 146 -375 184 -177 72 -466 168 -572 190 -10 2 -65 15 -123 29 -58
14 -170 36 -250 50 -138 24 -170 28 -285 41 -27 3 -66 7 -85 10 -154 18 -546
24 -755 12 -123 -8 -298 -25 -325 -32 -8 -2 -40 -7 -70 -10 -30 -4 -77 -11
-105 -17 -27 -5 -63 -12 -80 -14 -16 -3 -84 -19 -150 -35 -66 -16 -127 -31
-136 -34 -9 -2 -34 -8 -55 -15 -154 -44 -281 6 -346 137 -28 56 -30 70 -26
130 3 41 13 85 26 109 20 39 81 102 119 122 16 9 215 67 260 77 10 2 47 10 83
19 36 8 81 18 100 21 19 3 42 8 50 10 8 2 31 7 50 10 19 3 46 7 60 10 33 6 75
13 130 20 25 3 56 8 70 10 68 12 193 21 385 30 83 4 151 8 152 9 4 3 260 -2
378 -8z m25 -1140 c80 -4 152 -8 160 -11 8 -2 44 -6 80 -10 36 -3 76 -7 90 -9
14 -2 52 -7 85 -11 33 -4 62 -9 65 -10 3 -2 26 -6 50 -10 284 -41 692 -172
985 -316 346 -170 408 -223 409 -353 1 -125 -92 -216 -222 -216 -43 0 -130 36
-192 80 -73 52 -415 203 -580 257 -81 26 -318 89 -372 98 -18 4 -51 10 -73 15
-22 5 -62 12 -90 16 -27 3 -57 8 -65 9 -9 2 -43 6 -75 10 -33 4 -70 8 -82 10
-156 24 -654 24 -873 -1 -248 -27 -280 -32 -495 -68 -11 -2 -93 -19 -182 -36
-145 -30 -165 -32 -206 -21 -173 49 -217 270 -76 383 33 27 145 60 274 82 50
8 89 15 115 21 14 3 52 10 85 15 33 5 69 12 80 14 26 5 83 13 230 30 17 2 66
7 110 11 44 4 89 9 100 11 10 2 98 7 195 10 96 3 176 7 177 8 2 2 141 -2 293
-8z"/>
</g>
</svg>
